<?xml version="1.0" standalone="no"?>
<!DOCTYPE svg PUBLIC "-//W3C//DTD SVG 20010904//EN"
 "http://www.w3.org/TR/2001/REC-SVG-20010904/DTD/svg10.dtd">
<svg version="1.0" xmlns="http://www.w3.org/2000/svg"
 width="85.000000pt" height="85.000000pt" viewBox="0 0 85.000000 85.000000"
 preserveAspectRatio="xMidYMid meet">
<metadata>
Created by potrace 1.14, written by Peter Selinger 2001-2017
</metadata>
<g transform="translate(0.000000,85.000000) scale(0.100000,-0.100000)"
fill="#000000" stroke="none">
<path d="M168 753 c-50 -42 -74 -73 -105 -133 -24 -48 -28 -69 -32 -162 -3
-92 -1 -109 13 -114 9 -3 16 -10 16 -16 0 -5 -5 -6 -11 -3 -25 16 55 -117 101
-168 58 -63 137 -107 240 -133 135 -34 271 9 350 111 38 49 77 141 65 153 -2
3 -8 -4 -12 -14 -11 -31 -124 -144 -172 -172 -57 -33 -163 -41 -242 -19 -76
23 -170 86 -212 143 -20 27 -45 60 -55 74 -28 37 -38 176 -17 253 18 69 68
173 97 205 29 30 16 28 -24 -5z m-114 -388 c3 -8 1 -15 -4 -15 -6 0 -10 7 -10
15 0 8 2 15 4 15 2 0 6 -7 10 -15z"/>
<path d="M522 708 c-14 -14 -16 -58 -2 -58 5 0 14 9 20 20 6 11 15 18 21 14 5
-3 17 -3 26 0 12 5 13 9 3 21 -15 18 -51 20 -68 3z"/>
<path d="M287 673 c-8 -10 -17 -27 -19 -37 -4 -26 22 -33 29 -7 6 23 23 27 41
9 21 -21 34 4 16 30 -18 26 -45 28 -67 5z"/>
<path d="M556 624 c-37 -37 -32 -97 13 -154 57 -72 65 -109 29 -134 -12 -9
-37 -16 -54 -16 -33 0 -54 -24 -29 -34 26 -9 85 6 110 30 29 26 34 87 11 119
-12 17 -11 22 15 46 35 33 38 79 9 127 -16 26 -26 32 -54 32 -19 0 -42 -7 -50
-16z m88 -52 c6 -22 5 -41 -2 -57 -12 -26 -38 -36 -28 -10 9 25 -4 45 -30 45
-26 0 -30 11 -13 41 17 33 61 22 73 -19z"/>
<path d="M304 570 c-26 -10 -46 -63 -38 -99 9 -36 43 -71 69 -71 12 0 34 9 49
21 36 29 37 99 1 134 -25 26 -45 30 -81 15z m66 -40 c14 -26 9 -82 -7 -87 -7
-3 -10 3 -7 15 8 27 -19 46 -45 32 -26 -13 -29 5 -5 38 19 28 50 28 64 2z"/>
<path d="M645 281 c15 -49 -70 -112 -151 -110 -70 1 -119 21 -118 48 0 14 -5
21 -18 21 -10 0 -18 -5 -18 -10 0 -6 -11 -16 -25 -22 -33 -15 -34 -42 -1 -34
14 3 42 -2 68 -14 29 -13 65 -20 113 -20 80 0 115 16 161 74 16 20 37 36 47
36 9 0 17 6 17 14 0 18 -6 22 -48 31 -31 6 -33 5 -27 -14z"/>
</g>
</svg>
